<?xml version="1.0" ?><!DOCTYPE svg  PUBLIC '-//W3C//DTD SVG 1.1//EN'  'http://www.w3.org/Graphics/SVG/1.1/DTD/svg11.dtd'><svg enable-background="new 0 0 711.071 705.071" height="705.071px" id="Layer_1" version="1.1" viewBox="0 0 711.071 705.071" width="711.071px" xml:space="preserve" xmlns="http://www.w3.org/2000/svg" xmlns:xlink="http://www.w3.org/1999/xlink"><circle cx="353.6" cy="355.725" fill="#111111" r="322.668"/><g><path d="M529.059,480.293c0,42.781-109.396,62.338-174.177,62.338s-173.565-19.557-173.565-62.338   c0-6.723,2.445-12.834,7.334-18.334c59.281-121.617,44.003-178.454,76.394-223.679c14.667-20.168,31.779-33.002,59.28-39.113   c1.223-15.89,14.057-28.112,30.558-28.112c15.89,0,29.335,12.223,30.558,28.112c27.501,6.111,44.613,18.945,59.281,39.113   c32.391,45.225,17.111,102.062,76.393,223.679C526.003,467.459,529.059,473.571,529.059,480.293z M493.001,468.071   c-25.057-29.945-89.838-36.057-138.119-36.057c-47.669,0-113.062,6.111-138.118,36.057c25.057,29.947,90.449,37.279,138.118,36.67   C403.163,504.741,467.944,498.627,493.001,468.071z M327.381,453.403c0-3.666,18.945-4.277,27.501-4.277   c21.39,0,27.502,1.834,27.502,4.277c0,17.113-12.224,30.559-27.502,30.559S327.381,470.516,327.381,453.403z" fill="#F4B300"/></g></svg>